<?xml version="1.0" encoding="utf-8"?>
<!-- Generator: Adobe Illustrator 24.1.2, SVG Export Plug-In . SVG Version: 6.00 Build 0)  -->
<svg version="1.1" id="Layer_1" xmlns="http://www.w3.org/2000/svg" xmlns:xlink="http://www.w3.org/1999/xlink" x="0px" y="0px"
	 viewBox="0 0 75 75" style="enable-background:new 0 0 75 75;" xml:space="preserve">
<style type="text/css">
	.st0{opacity:0.85;enable-background:new    ;}
	.st1{fill:#2A89CA;}
	.st2{fill:#FFFFFF;}
	.st3{enable-background:new    ;}
</style>
<g class="st0">
	
		<image style="overflow:visible;opacity:0.15;" width="115" height="116" xlink:href="8CC10A19.png"  transform="matrix(1 0 0 1 -19 -19)">
	</image>
	<g>
		<path class="st1" d="M38.9,10.8c-0.5,0-0.9,0-1.4,0s-0.9,0-1.4,0c-14.3,0.7-25.8,12.6-25.8,27.1l0,0l0,0c0,3.8,0.8,7.3,2.1,10.6
			l0,0c0.2,0.4,0.4,0.8,0.5,1.2c0,0,0,0,0,0c0.2,0.4,0.4,0.8,0.6,1.2v0c0.2,0.4,0.4,0.8,0.6,1.1c0,0,0,0,0,0
			c0.2,0.4,0.4,0.7,0.7,1.1c0,0,0,0,0,0c0.2,0.3,0.5,0.7,0.7,1c0,0,0,0,0,0c0.3,0.3,0.5,0.7,0.8,1c0,0,0,0,0,0.1
			c0.3,0.3,0.5,0.6,0.8,0.9c0,0,0,0,0.1,0.1c0.3,0.3,0.5,0.6,0.8,0.9c0,0,0,0,0.1,0.1c0.3,0.3,0.6,0.6,0.9,0.8c0,0,0.1,0,0.1,0.1
			c0.3,0.3,0.6,0.5,0.9,0.8c0,0,0.1,0.1,0.1,0.1c0.3,0.2,0.6,0.5,0.9,0.7c0,0,0.1,0.1,0.1,0.1c0.3,0.2,0.6,0.5,0.9,0.7
			c0,0,0.1,0.1,0.2,0.1c0.3,0.2,0.6,0.4,0.9,0.6c0.1,0,0.1,0.1,0.2,0.1c0.3,0.2,0.6,0.4,1,0.5c0.1,0,0.1,0.1,0.2,0.1
			c0.3,0.2,0.6,0.3,1,0.5c0.1,0,0.1,0.1,0.2,0.1c0.3,0.2,0.6,0.3,1,0.4C27,63,27,63,27.1,63c0.3,0.1,0.7,0.3,1,0.4
			c0.1,0,0.2,0.1,0.3,0.1c0.3,0.1,0.7,0.2,1,0.3c0.1,0,0.2,0,0.3,0.1c0.3,0.1,0.7,0.2,1,0.3c0.1,0,0.2,0.1,0.3,0.1
			c0.3,0.1,0.7,0.2,1,0.2c0.1,0,0.2,0,0.3,0.1c0.3,0.1,0.7,0.1,1,0.2c0.1,0,0.2,0,0.3,0c0.3,0.1,0.7,0.1,1,0.1c0.1,0,0.2,0,0.3,0
			c0.3,0,0.7,0.1,1.1,0.1c0.1,0,0.2,0,0.3,0c0.2,0,0.4,0,0.7,0l0-25.9l-9.1,9.1l-0.7-0.7l10.4-10.3l10.3,10.3l-0.7,0.7l-9.1-9.1
			l0,25.9c0.2,0,0.5,0,0.7,0c0.1,0,0.2,0,0.3,0c0.4,0,0.7-0.1,1.1-0.1c0.1,0,0.2,0,0.3,0c0.4,0,0.7-0.1,1.1-0.1c0.1,0,0.2,0,0.3,0
			c0.3-0.1,0.7-0.1,1-0.2c0.1,0,0.2,0,0.3-0.1c0.3-0.1,0.7-0.2,1-0.2c0.1,0,0.2,0,0.3-0.1c0.3-0.1,0.7-0.2,1-0.3
			c0.1,0,0.2,0,0.2-0.1c0.3-0.1,0.7-0.2,1-0.3c0.1,0,0.2,0,0.2-0.1c0.3-0.1,0.7-0.3,1-0.4c0.1,0,0.1-0.1,0.2-0.1
			c0.3-0.1,0.7-0.3,1-0.5c0.1,0,0.1-0.1,0.2-0.1c0.3-0.2,0.7-0.3,1-0.5c0.1,0,0.1-0.1,0.2-0.1c0.3-0.2,0.7-0.4,1-0.6
			c0,0,0.1-0.1,0.2-0.1c0.3-0.2,0.7-0.4,1-0.6c0,0,0.1,0,0.1-0.1c0.3-0.2,0.6-0.5,1-0.7c0,0,0.1,0,0.1-0.1c0.3-0.2,0.6-0.5,0.9-0.7
			c0,0,0.1,0,0.1-0.1c0.3-0.3,0.6-0.5,0.9-0.8c0,0,0,0,0.1-0.1c0.3-0.3,0.6-0.6,0.9-0.8c0,0,0,0,0,0c0.3-0.3,0.6-0.6,0.9-0.9
			c0,0,0,0,0,0c0.3-0.3,0.6-0.6,0.8-1c0,0,0,0,0,0c0.3-0.3,0.5-0.7,0.8-1c0,0,0,0,0,0c3.4-4.5,5.4-10.1,5.4-16.2l0,0l0,0
			C64.7,23.4,53.3,11.5,38.9,10.8z"/>
	</g>
</g>
<path class="st2" d="M47.2,48.3l0.7-0.7L37.5,37.2L27.2,47.6l0.7,0.7l9.1-9.1l0,25.9c0,0,0,0,0,0v0c0.2,0,0.3,0,0.5,0
	c0.2,0,0.3,0,0.5,0v0c0,0,0,0,0,0l0-25.9L47.2,48.3z"/>
<g class="st3">
	<path class="st2" d="M29.6,24.5h-2.4v-1.1h6.3v1.1H31v6.9h-1.4V24.5z"/>
	<path class="st2" d="M35.6,31c-0.5-0.3-0.9-0.8-1.2-1.4S34,28.2,34,27.4c0-0.8,0.1-1.6,0.4-2.2c0.3-0.6,0.7-1.1,1.2-1.4
		s1.2-0.5,1.9-0.5c0.7,0,1.3,0.2,1.9,0.5s0.9,0.8,1.2,1.4c0.3,0.6,0.4,1.3,0.4,2.2c0,0.8-0.1,1.6-0.4,2.2s-0.7,1.1-1.2,1.4
		c-0.5,0.3-1.2,0.5-1.9,0.5C36.8,31.5,36.2,31.3,35.6,31z M39,29.6c0.4-0.5,0.6-1.2,0.6-2.2c0-0.9-0.2-1.6-0.6-2.2
		c-0.4-0.5-0.9-0.8-1.5-0.8c-0.6,0-1.2,0.3-1.5,0.8c-0.4,0.5-0.6,1.3-0.6,2.2c0,0.9,0.2,1.6,0.6,2.2s0.9,0.8,1.5,0.8
		C38.2,30.4,38.7,30.1,39,29.6z"/>
	<path class="st2" d="M42.2,23.4h2.6c0.9,0,1.6,0.2,2.1,0.6s0.7,1,0.7,1.9c0,0.9-0.2,1.5-0.7,2c-0.5,0.5-1.2,0.7-2.1,0.7h-1.1v2.8
		h-1.4V23.4z M44.9,27.4c0.4,0,0.8-0.1,1-0.4c0.2-0.2,0.3-0.6,0.3-1.1c0-0.5-0.1-0.8-0.4-1c-0.2-0.2-0.6-0.4-1.1-0.4h-1.1v2.8H44.9z
		"/>
</g>
</svg>
