<svg width="104" height="104" viewBox="0 0 104 104" fill="none" xmlns="http://www.w3.org/2000/svg">
<circle cx="52" cy="52" r="52" fill="#FAFAFA"/>
<path d="M76.3236 44.764C75.7464 45.5774 75.4053 48.5424 75.3266 51.8223H56.5394C55.6472 51.8223 54.9388 52.557 54.9388 53.4491C54.9388 54.3412 55.6472 55.0759 56.5394 55.0759H75.3266C75.4053 58.3821 75.7464 61.3471 76.3236 62.1605C76.586 62.5278 77.3994 63.3675 79.0263 62.8165C81.5715 61.9506 88 56.3354 88 53.4491C88 50.5628 81.2041 44.8689 78.9476 44.108C77.3994 43.5832 76.6123 44.3704 76.3499 44.7377L76.3236 44.764ZM78.0292 53.5016C78.0292 51.6386 78.1604 48.9885 78.3703 47.729C78.4228 47.3616 78.7901 47.178 79.105 47.3354C81.3353 48.5686 84.4315 51.6124 85.0613 53.2392C85.1137 53.3966 85.1137 53.5278 85.0613 53.7115C84.379 55.4958 81.2041 58.5395 79.0787 59.6678C78.7639 59.8252 78.3965 59.6678 78.3441 59.2742C78.1341 57.9098 78.0029 55.3121 78.0029 53.5016H78.0292Z" fill="black" stroke="black"/>
<path d="M67.8484 63.5511C67.8484 62.6589 67.0613 61.9242 66.1167 61.9242C65.172 61.9242 64.3849 62.6589 64.3849 63.5511C64.3849 72.6035 59.5831 76.6444 48.8513 76.6968C43.2887 76.6968 39.3266 75.5686 36.7551 73.1808C33.2391 69.9009 31.7435 64.0234 31.7435 53.4752C31.7435 35.8951 35.9155 30.2536 48.8513 30.2536C59.4519 30.2536 64.3849 34.4257 64.3849 43.3994C64.3849 44.2916 65.172 45.0263 66.1167 45.0263C67.0613 45.0263 67.8484 44.2916 67.8484 43.3994C67.8484 32.6676 61.2624 27 48.8251 27C31.691 27 28.2274 37.1283 28.2274 53.4752C28.2274 64.9417 30.0379 71.5277 34.2624 75.4898C37.5161 78.5336 42.2916 79.9767 48.8251 79.9505C61.4461 79.898 67.8222 74.3878 67.8222 63.5511H67.8484Z" fill="black" stroke="black"/>
</svg>
