<svg width="104" height="104" viewBox="0 0 104 104" fill="none" xmlns="http://www.w3.org/2000/svg">
<circle cx="52" cy="52" r="52" fill="#FAFAFA"/>
<path d="M52.5 26.5912C66.8063 26.5912 78.435 38.22 78.435 52.5262C78.435 66.8325 66.8063 78.4612 52.5 78.4612C38.1938 78.4612 26.5913 66.8062 26.5913 52.5C26.5913 38.1937 38.22 26.5912 52.5 26.5912ZM52.5 23.4412C36.4613 23.4412 23.4413 36.4612 23.4413 52.5C23.4413 68.5387 36.4613 81.585 52.5263 81.585C68.5913 81.585 81.6113 68.565 81.6113 52.5C81.6113 36.435 68.565 23.4412 52.5 23.4412Z" fill="black" stroke="black"/>
<path d="M54.1801 48.2737C54.1801 47.3458 53.4338 46.5937 52.5132 46.5937C51.5926 46.5937 50.8463 47.3458 50.8463 48.2737V65.1787C50.8463 66.1065 51.5926 66.8587 52.5132 66.8587C53.4338 66.8587 54.1801 66.1065 54.1801 65.1787V48.2737Z" fill="black" stroke="black"/>
<path d="M52.5 42.2625C53.6308 42.2625 54.5475 41.3458 54.5475 40.215C54.5475 39.0841 53.6308 38.1674 52.5 38.1674C51.3691 38.1674 50.4525 39.0841 50.4525 40.215C50.4525 41.3458 51.3691 42.2625 52.5 42.2625Z" fill="black" stroke="black"/>
</svg>
