<svg width="208" height="104" viewBox="0 0 208 104" fill="none" xmlns="http://www.w3.org/2000/svg">
<circle cx="52" cy="52" r="52" fill="#FAFAFA"/>
<path d="M73.0424 54.5178C73.0424 54.5178 72.7892 54.5178 72.6807 54.5178C71.4872 54.3008 70.6553 53.1796 70.8723 51.986C71.5957 47.7544 70.3298 43.3058 67.4002 39.8338C63.9281 35.7107 58.5392 33.3236 52.6439 33.3236C46.7486 33.3236 41.3596 35.7107 37.8514 39.8338C34.9218 43.3058 33.6559 47.7544 34.3793 51.986C34.5963 53.1796 33.7644 54.3369 32.5709 54.5178C31.3412 54.7348 30.22 53.9029 30.0392 52.7094C29.0265 47.1396 30.654 41.4251 34.4516 36.9404C38.7555 31.8046 45.3742 28.875 52.5715 28.875C59.7689 28.875 66.3875 31.8046 70.7276 36.9404C74.4891 41.4251 76.1166 47.1396 75.1762 52.6732C74.9954 53.7583 74.055 54.5178 73.0062 54.5178H73.0424Z" fill="black"/>
<path d="M42.3001 78.75C40.0215 78.75 37.8153 77.5564 36.5856 75.4587L29.7499 63.6319C27.9416 60.4854 29.0266 56.4346 32.1732 54.6262C35.3197 52.8179 39.3705 53.9029 41.1789 57.0495L48.0145 68.8762C49.8229 72.0228 48.7379 76.0736 45.5913 77.8819C44.5425 78.4968 43.4213 78.75 42.3001 78.75ZM35.4644 58.1345C35.1027 58.1345 34.7049 58.243 34.3794 58.4238C33.3305 59.0387 32.9689 60.3769 33.5837 61.3896L40.4194 73.2163C41.0342 74.2652 42.3362 74.5907 43.3851 74.012C43.8914 73.7227 44.2531 73.2525 44.3978 72.6738C44.5425 72.0951 44.4701 71.5165 44.1808 71.0101L37.3451 59.1833C36.9473 58.4962 36.2239 58.0983 35.4644 58.0983V58.1345Z" fill="black"/>
<path d="M62.8431 78.75C61.7219 78.75 60.6007 78.4606 59.5519 77.8819C58.0328 77.0139 56.9478 75.5672 56.4776 73.8673C56.0075 72.1675 56.2606 70.3953 57.1287 68.8762L63.9643 57.0495C65.7727 53.9029 69.8235 52.8179 72.97 54.6262C76.1166 56.4346 77.2016 60.4854 75.3933 63.6319L68.5576 75.4587C67.3279 77.5564 65.1217 78.75 62.8431 78.75ZM69.6788 58.1345C68.9193 58.1345 68.1959 58.5323 67.7981 59.2195L60.9624 71.0463C60.6731 71.5526 60.6007 72.1313 60.7454 72.71C60.8901 73.2887 61.2518 73.7588 61.7581 74.0482C62.807 74.6269 64.1452 74.3014 64.7238 73.2525L71.5595 61.4257C72.1744 60.3769 71.8127 59.0387 70.7638 58.46C70.4383 58.2791 70.0405 58.1706 69.6788 58.1706V58.1345Z" fill="black"/>
<circle cx="156" cy="52" r="52" fill="#FAFAFA"/>
<path d="M177.042 54.5178C177.042 54.5178 176.789 54.5178 176.681 54.5178C175.487 54.3008 174.655 53.1796 174.872 51.986C175.596 47.7544 174.33 43.3058 171.4 39.8338C167.928 35.7107 162.539 33.3236 156.644 33.3236C150.749 33.3236 145.36 35.7107 141.851 39.8338C138.922 43.3058 137.656 47.7544 138.379 51.986C138.596 53.1796 137.764 54.3369 136.571 54.5178C135.341 54.7348 134.22 53.9029 134.039 52.7094C133.026 47.1396 134.654 41.4251 138.452 36.9404C142.756 31.8046 149.374 28.875 156.572 28.875C163.769 28.875 170.388 31.8046 174.728 36.9404C178.489 41.4251 180.117 47.1396 179.176 52.6732C178.995 53.7583 178.055 54.5178 177.006 54.5178H177.042Z" fill="black"/>
<path d="M146.3 78.75C144.022 78.75 141.815 77.5564 140.586 75.4587L133.75 63.6319C131.942 60.4854 133.027 56.4346 136.173 54.6262C139.32 52.8179 143.371 53.9029 145.179 57.0495L152.015 68.8762C153.823 72.0228 152.738 76.0736 149.591 77.8819C148.542 78.4968 147.421 78.75 146.3 78.75ZM139.464 58.1345C139.103 58.1345 138.705 58.243 138.379 58.4238C137.331 59.0387 136.969 60.3769 137.584 61.3896L144.419 73.2163C145.034 74.2652 146.336 74.5907 147.385 74.012C147.891 73.7227 148.253 73.2525 148.398 72.6738C148.542 72.0951 148.47 71.5165 148.181 71.0101L141.345 59.1833C140.947 58.4962 140.224 58.0983 139.464 58.0983V58.1345Z" fill="black"/>
<path d="M166.843 78.75C165.722 78.75 164.601 78.4606 163.552 77.8819C162.033 77.0139 160.948 75.5672 160.478 73.8673C160.007 72.1675 160.261 70.3953 161.129 68.8762L167.964 57.0495C169.773 53.9029 173.823 52.8179 176.97 54.6262C180.117 56.4346 181.202 60.4854 179.393 63.6319L172.558 75.4587C171.328 77.5564 169.122 78.75 166.843 78.75ZM173.679 58.1345C172.919 58.1345 172.196 58.5323 171.798 59.2195L164.962 71.0463C164.673 71.5526 164.601 72.1313 164.745 72.71C164.89 73.2887 165.252 73.7588 165.758 74.0482C166.807 74.6269 168.145 74.3014 168.724 73.2525L175.56 61.4257C176.174 60.3769 175.813 59.0387 174.764 58.46C174.438 58.2791 174.04 58.1706 173.679 58.1706V58.1345Z" fill="black"/>
<path d="M138.714 23.9914C137.334 22.266 134.822 22.0212 133.111 23.3905C131.399 24.7598 131.087 27.2638 132.467 28.9892L174.361 81.3533C175.742 83.0786 178.253 83.3234 179.965 81.9541C181.676 80.5848 181.989 78.0809 180.608 76.3555L138.714 23.9914Z" fill="black" stroke="white" stroke-width="3" stroke-linecap="round"/>
</svg>
